<?xml version="1.0" encoding="UTF-8" standalone="no"?>
<!-- Created with Inkscape (http://www.inkscape.org/) -->

<svg
   width="8"
   height="59.12392"
   viewBox="0 0 8.0000004 59.123921"
   version="1.1"
   id="svg1050"
   inkscape:version="1.1.1 (c3084ef, 2021-09-22)"
   sodipodi:docname="MinuteHand1.svg"
   xmlns:inkscape="http://www.inkscape.org/namespaces/inkscape"
   xmlns:sodipodi="http://sodipodi.sourceforge.net/DTD/sodipodi-0.dtd"
   xmlns="http://www.w3.org/2000/svg"
   xmlns:svg="http://www.w3.org/2000/svg">
  <sodipodi:namedview
     id="namedview1052"
     pagecolor="#ffffff"
     bordercolor="#666666"
     borderopacity="1.0"
     inkscape:pageshadow="2"
     inkscape:pageopacity="0.0"
     inkscape:pagecheckerboard="0"
     inkscape:document-units="px"
     showgrid="false"
     fit-margin-top="0"
     fit-margin-left="0"
     fit-margin-right="0"
     fit-margin-bottom="0"
     units="px"
     inkscape:zoom="6.6553874"
     inkscape:cx="-5.7847872"
     inkscape:cy="-14.048769"
     inkscape:window-width="1681"
     inkscape:window-height="965"
     inkscape:window-x="0"
     inkscape:window-y="23"
     inkscape:window-maximized="0"
     inkscape:current-layer="layer1" />
  <defs
     id="defs1047" />
  <g
     inkscape:label="Capa 1"
     inkscape:groupmode="layer"
     id="layer1">
    <path
       class="fil1"
       d="m -1.5918283,-7.200996 c 2.04293842,-0.721953 0.78034852,-1.457879 0.4378584,-1.5037 0.34668802,-0.01774 1.73324282,-0.890006 -0.3510041,-1.62605 0.64698272,-1.156402 3.4385392,-1.195739 3.4218266,1.598616 -0.017738,2.794394 -3.0728524,2.775277 -3.5086809,1.531134 z M -4,0.00556504 C -3.99606,2.214684 -2.2035726,4.00307 0.00560492,3.999996 2.2147234,3.996096 4.0031097,2.203549 3.9999959,-0.00560896 3.9980259,-1.626318 3.0313153,-3.393873 1.6443071,-4.219215 l 0.9460557,-0.0012 -0.021088,-0.992449 c 0,0 -1.0850778,-0.403172 -1.4618011,-0.520574 2.2761264,-1.432317 1.7959544,-4.741905 0.7945581,-5.518608 0.4125136,0.0099 0.7904391,-0.08888 0.7904391,-0.08888 l -0.1681119,-0.783048 1.0404383,0.04454 c 0,0 -1.8533449,-2.803007 -2.2050782,-3.33381 2.6598856,-1.373908 0.4311576,-3.169606 0.4311576,-3.169606 l 1.4772726,-0.549624 -1.6421117,-0.837739 0.945149,-0.876997 c 0,0 -0.8179322,-0.195308 -1.297986,-0.267895 2.5891331,-4.290153 -0.55167348,-7.414621 -0.83628048,-9.840097 -0.2846858,-2.425456 -0.283996,-5.277496 -0.007884,-8.162076 l 1.53166668,0.211154 c 0,0 -1.28499808,-2.568064 -1.29514788,-3.239288 -0.00985,-0.626664 -0.2591439,-11.300124 -0.2920567,-12.72789 0.00788,-0.10504 -0.038825,-0.239178 -0.1884109,-0.24862 -0.1204175,-2.56e-4 -0.2402437,-0.002 -0.3588677,-0.002 -0.1261328,0.0098 -0.2006695,0.06444 -0.2157266,0.207666 -0.027986,1.431234 -0.2500189,12.040326 -0.2388246,12.767896 0.00985,0.780112 -1.28803332,3.247666 -1.28803332,3.247666 l 1.55019252,-0.206602 c 0,0 -0.66405002,4.505228 -0.2766448,8.720412 -0.47086972,0.06168 -0.95685562,0.1015 -0.95685562,0.1015 l 0.5270776,0.764168 c 0,0 -0.6792648,0.464702 -1.1136546,0.770652 4.415379,1.450272 4.9375295,7.040599 -0.19925,9.426461 0.321816,0.15471 0.8712429,0.416475 0.8712429,0.416475 l -0.3831285,0.352797 c 0,0 0.2461759,0.22832 0.5329113,0.489947 -1.1212817,1.73005 -0.2507285,3.998175 -0.2507285,3.998175 l -1.1726216,0.235671 1.0611517,1.03025 -0.7780033,0.404177 0.929146,0.94507 c 0,0 -2.1476682,1.381746 -0.2969641,2.706377 -1.8305031,1.100076 0.5583744,3.044571 0.5583744,3.044571 l -1.3260111,0.367973 -0.00394,1.119429 0.9893546,-0.0012 c -1.3849596,0.829151 -2.3467424,2.599642 -2.344476,4.22060704 z M 0.51922182,-15.707691 c 0.52161848,0.885058 1.53848578,2.649874 1.53848578,2.649874 0,0 -3.0835738,-0.732694 -3.2029861,-2.777307 -0.1554982,-2.658625 2.11390772,-2.678589 2.6176114,-1.905868 0.5037037,0.772781 -0.2265662,1.835686 -0.95311108,2.033301 z"
       id="path1461"
       style="clip-rule:evenodd;display:inline;fill-opacity:1;fill-rule:evenodd;image-rendering:optimizeQuality;shape-rendering:geometricPrecision;text-rendering:geometricPrecision;stroke-miterlimit:4;stroke-dasharray:none;stroke:none" />
  </g>
</svg>
