<?xml version="1.0" encoding="UTF-8" standalone="no"?>
<!-- Created with Inkscape (http://www.inkscape.org/) -->

<svg
   width="13.833623"
   height="37.795273"
   viewBox="0 0 13.833623 37.795273"
   version="1.1"
   id="svg1050"
   inkscape:version="1.1.1 (c3084ef, 2021-09-22)"
   sodipodi:docname="HandHour-shift-1.svg"
   xmlns:inkscape="http://www.inkscape.org/namespaces/inkscape"
   xmlns:sodipodi="http://sodipodi.sourceforge.net/DTD/sodipodi-0.dtd"
   xmlns="http://www.w3.org/2000/svg"
   xmlns:svg="http://www.w3.org/2000/svg">
  <sodipodi:namedview
     id="namedview1052"
     pagecolor="#ffffff"
     bordercolor="#666666"
     borderopacity="1.0"
     inkscape:pageshadow="2"
     inkscape:pageopacity="0.0"
     inkscape:pagecheckerboard="0"
     inkscape:document-units="px"
     showgrid="false"
     inkscape:zoom="12.46534"
     inkscape:cx="-11.471809"
     inkscape:cy="-9.3459144"
     inkscape:window-width="1648"
     inkscape:window-height="983"
     inkscape:window-x="0"
     inkscape:window-y="23"
     inkscape:window-maximized="0"
     inkscape:current-layer="layer1"
     fit-margin-top="0"
     fit-margin-left="0"
     fit-margin-right="0"
     fit-margin-bottom="0"
     units="px" />
  <defs
     id="defs1047" />
  <g
     inkscape:label="Capa 1"
     inkscape:groupmode="layer"
     id="layer1">
    <path
       id="path946"
       style="clip-rule:evenodd;display:inline;fill-opacity:1;fill-rule:evenodd;stroke-miterlimit:4;stroke-dasharray:none;stroke-opacity:1;image-rendering:optimizeQuality;shape-rendering:geometricPrecision;text-rendering:geometricPrecision"
       inkscape:transform-center-y="-14.774907"
       d="m -6.7904e-4,-23.606435 c 0.30798086,-0.501507 1.08119084,-0.632006 1.81955604,-0.422506 -0.5802926,-0.88165 -1.06464559,-2.129471 -1.19893963,-3.074004 -0.16473355,0.164009 -0.40671343,0.253888 -0.62061641,0.253888 -0.21379632,0 -0.45584683,-0.08989 -0.62050908,-0.253888 -0.13429452,0.944533 -0.61843158,2.192354 -1.19854528,3.074004 0.7381147,-0.209475 1.51107389,-0.07916 1.81905436,0.422506 z m 0,4.581962 c 0.57438342,-1.157219 2.10207414,-2.021534 2.24474784,-2.978102 0.1428898,-0.9566 -0.4557036,-1.589036 -1.0022972,-1.622983 -0.31299462,-0.01808 -0.45000973,1.234106 -1.24245064,0.733852 -0.79222616,0.500254 -0.92924136,-0.753298 -1.24212806,-0.733852 -0.5464149,0.03242 -1.1446847,0.666383 -1.002047,1.622983 0.1425272,0.956568 1.66993463,1.820883 2.24417506,2.978102 z m 0,6.38909 c 0.37025689,-0.681748 0.87563131,-1.20997 1.50917584,-1.600495 -0.62534334,-0.390169 -1.14715501,-0.947075 -1.50917584,-1.600426 -0.36191291,0.653351 -0.88361726,1.210257 -1.50878216,1.600426 0.6333297,0.390525 1.13859705,0.918747 1.50878216,1.600495 z m 0,7.0837665 c 1.00519824,0 1.27306944,-0.804796 1.16849954,-1.40217 C 1.0131139,-7.836977 0.13823472,-8.17647 -6.7904e-4,-9.467374 -0.13962856,-8.17647 -1.0143642,-7.83694 -1.1688561,-6.9537865 c -0.1045704,0.597374 0.1633026,1.40217 1.16817706,1.40217 z M -5.1236492,-17.719424 c 0.2499628,-1.269344 1.4823909,-2.095844 2.7516998,-1.845734 0.7315249,0.14432 1.3159002,0.614562 1.63193821,1.230203 0.23241811,0.452621 0.31979615,0.983708 0.21379331,1.521529 -0.0576543,0.292572 -0.16760033,0.561491 -0.31800902,0.799246 -0.3652068,0.577034 -0.9695296,0.969814 -1.6476599,1.067259 0.1622244,-0.135728 0.2811215,-0.325893 0.3251724,-0.549924 0.1024216,-0.519913 -0.2359997,-1.024644 -0.7560557,-1.127137 -0.5199501,-0.102397 -1.0247124,0.236013 -1.1272085,0.756058 -0.046527,0.235638 -0.00236,0.468417 0.1085069,0.661836 -0.8780316,-0.475544 -1.3853428,-1.482211 -1.1821436,-2.513373 z m 10.2472997,0 c -0.2503342,-1.269344 -1.4827829,-2.095844 -2.7524503,-1.845734 -0.7317042,0.14432 -1.316258,0.614562 -1.632404,1.230203 -0.23241695,0.452621 -0.31979965,0.983708 -0.21379254,1.521529 0.0576553,0.292572 0.16759781,0.561491 0.31800688,0.799246 0.36527896,0.577034 0.96977956,0.969814 1.64812416,1.067259 -0.1622245,-0.135728 -0.2811215,-0.325893 -0.3251725,-0.549924 -0.1024214,-0.519913 0.2359997,-1.024644 0.7562716,-1.127137 0.5201644,-0.102397 1.0250382,0.236013 1.1275673,0.756058 0.046541,0.235638 0.00233,0.468417 -0.1085075,0.661836 0.8782446,-0.475544 1.3856974,-1.482211 1.1824315,-2.513373 z M 1.3933039,-4.1788951 c -0.014321,0.070577 -0.025035,0.1658083 -0.037606,0.2460414 1.5800472,0.5573741 2.7128093,2.0636126 2.7128093,3.83417759 0,2.24449831 -1.8202747,4.06480441 -4.06484355,4.06480441 -2.24453485,0 -4.06480585,-1.8203081 -4.06480585,-4.06480441 l 4.247e-4,-2.393e-4 c 0,-1.77074419 1.132975,-3.27709319 2.7132368,-3.83432189 -0.010714,-0.080226 -0.025035,-0.1750933 -0.037606,-0.2456626 l -0.00484,-0.9658563 c -0.6132378,-0.5257902 -0.8998744,-1.4634466 -0.8212677,-2.2964258 -0.3384213,0.07947 -0.6665989,-0.0215 -0.9582493,-0.232396 1.6648492,-1.063356 2.61761894,-2.231639 2.58016027,-3.884133 -0.0458386,-2.020746 -1.73378687,-2.404433 -2.34083077,-2.558103 0.08559,0.140735 0.134649,0.306215 0.134649,0.48285 0,0.514399 -0.4171342,0.931497 -0.9314991,0.931497 -0.5143988,0 -0.9315345,-0.417098 -0.9315345,-0.931497 0,-0.399049 0.2510235,-0.739511 0.6037833,-0.872156 -1.0975534,-0.493238 -1.8843396,-1.304586 -1.7887576,-2.948412 -0.094904,0.0426 -0.2001968,0.06628 -0.3111928,0.06628 -0.4208609,5e-6 -0.762147,-0.341279 -0.762147,-0.76214 0,-0.420858 0.341281,-0.762181 0.762147,-0.762181 0.2399347,0 0.4537662,0.110996 0.5934672,0.283972 0.6321497,-1.367612 2.1612743,-1.917035 3.088761,-1.880936 -1.1039684,-2.154753 0.1067192,-3.491067 0.9937741,-5.778966 0.75960181,-1.959471 1.12366332,-5.076703 0.86768137,-8.013689 0.22812041,-0.06914 0.44277596,-0.287894 0.61001619,-0.493808 0.16724061,0.205929 0.38211075,0.424691 0.61019542,0.493808 -0.25605181,2.936949 0.10815416,6.054218 0.86789622,8.013689 0.8872342,2.287899 2.0983137,3.624247 0.9940607,5.778966 0.9277376,-0.03589 2.4572515,0.51336 3.0896137,1.880936 0.1396487,-0.173352 0.3537952,-0.283972 0.5936518,-0.283972 0.4209999,0 0.7623587,0.341285 0.7623587,0.762181 0,0.42086 -0.3412842,0.762145 -0.7623587,0.762145 -0.1109916,0 -0.2163244,-0.02493 -0.3111923,-0.06628 0.095611,1.643826 -0.6913107,2.455174 -1.7891524,2.948412 0.3527412,0.132485 0.6039279,0.473107 0.6039279,0.872156 0,0.514399 -0.4172769,0.931497 -0.9317825,0.931497 -0.5145057,0 -0.9317835,-0.417098 -0.9317835,-0.931497 0,-0.176894 0.049419,-0.342024 0.1346497,-0.48285 -0.6072234,0.153623 -2.29567251,0.537357 -2.34147555,2.558103 -0.037602,1.652494 0.91556135,2.820777 2.58087585,3.884133 -0.2918647,0.212018 -0.6199714,0.311568 -0.9585352,0.232396 0.078787,0.8329791 -0.2080643,1.7706354 -0.8215199,2.2964256 z"
       sodipodi:nodetypes="cccscccccccccccccccscccsccccccccccccccccccccccccccsscccccccccssscccsscccccccccsssccssscccccc" />
  </g>
</svg>
