<?xml version="1.0" encoding="UTF-8" standalone="no"?>
<!-- Created with Inkscape (http://www.inkscape.org/) -->

<svg
   width="210mm"
   height="297mm"
   viewBox="0 0 793.70081 1122.5197"
   version="1.1"
   id="svg5"
   inkscape:version="1.1.1 (c3084ef, 2021-09-22)"
   sodipodi:docname="diamond2.svg"
   xmlns:inkscape="http://www.inkscape.org/namespaces/inkscape"
   xmlns:sodipodi="http://sodipodi.sourceforge.net/DTD/sodipodi-0.dtd"
   xmlns="http://www.w3.org/2000/svg"
   xmlns:svg="http://www.w3.org/2000/svg">
  <sodipodi:namedview
     id="namedview7"
     pagecolor="#ffffff"
     bordercolor="#666666"
     borderopacity="1.0"
     inkscape:pageshadow="2"
     inkscape:pageopacity="0.0"
     inkscape:pagecheckerboard="0"
     inkscape:document-units="px"
     showgrid="false"
     inkscape:zoom="9.9879376"
     inkscape:cx="11.213526"
     inkscape:cy="-7.0084539"
     inkscape:window-width="2140"
     inkscape:window-height="1280"
     inkscape:window-x="0"
     inkscape:window-y="23"
     inkscape:window-maximized="0"
     inkscape:current-layer="layer1" />
  <defs
     id="defs2" />
  <g
     inkscape:groupmode="layer"
     id="layer3"
     inkscape:label="Bg"
     sodipodi:insensitive="true"
     style="display:inline">
    <circle
       style="fill:#ffefc0;fill-opacity:1;stroke-width:0.0529167;stroke-linecap:round"
       id="path1290"
       cx="0"
       cy="0"
       r="65" />
  </g>
  <g
     inkscape:label="Capa 1"
     inkscape:groupmode="layer"
     id="layer1">
    <path
       style="fill:#00c800;fill-opacity:1;stroke:#000000;stroke-width:0.1;stroke-linecap:butt;stroke-linejoin:miter;stroke-miterlimit:4;stroke-dasharray:none;stroke-opacity:1"
       d="m 120.40166,39.964867 -1.40016,-45.6368902 2.25173,-8.6870288 2.61746,8.4432107 -1.76589,45.8807083 z"
       id="path3579-0-4-9"
       sodipodi:nodetypes="cccccc" />
    <path
       style="color:#000000;fill:#00c800;stroke-width:0.00451331;stroke-linecap:round;-inkscape-stroke:none;fill-opacity:1"
       d="m 49.253774,-28.49999 0.360818,-4.611647 0.360819,4.611647 v 5.246108 l 0.944878,2.850836 -0.944878,2.850837 v 38.97685 h -0.721637 v -38.97685 l -0.964071,-2.850837 0.964071,-2.850836 z"
       id="path5029"
       sodipodi:nodetypes="cccccccccccc" />
    <path
       style="color:#000000;fill:#c80000;stroke-width:0.00451331;stroke-linecap:round;-inkscape-stroke:none"
       d="m 45.856192,-28.719188 0.360818,-4.611648 0.360819,4.611647 v 16.764415 l 0.944878,2.8508359 -0.944878,2.850837 V 21.205442 H 45.856192 V -6.2531011 l -0.964071,-2.850837 0.964071,-2.8508359 z"
       id="path5029-9"
       sodipodi:nodetypes="cccccccccccc" />
    <path
       style="color:#000000;fill:#0000c8;fill-opacity:1;stroke-width:0.00451331;stroke-linecap:round;-inkscape-stroke:none"
       d="m 42.458611,-28.719189 0.360818,-4.611647 0.360819,4.611647 v 10.931236 l 0.944878,2.850836 -0.944878,2.850837 V 21.205442 H 42.458611 V -12.08628 l -0.964071,-2.850837 0.964071,-2.850836 z"
       id="path5029-4"
       sodipodi:nodetypes="cccccccccccc" />
    <path
       style="fill:#0000c8;fill-opacity:1;stroke:none;stroke-width:0.857396px;stroke-linecap:butt;stroke-linejoin:miter;stroke-opacity:1"
       d="m 57.615465,-9.0417355 -0.851569,-27.1619595 1.703139,-27.16196 1.703139,27.16196 -0.851569,27.1619595 z"
       id="path3440-7"
       sodipodi:nodetypes="cccccc" />
    <path
       style="fill:#00c800;fill-opacity:1;stroke:none;stroke-width:0.905075px;stroke-linecap:butt;stroke-linejoin:miter;stroke-opacity:1"
       d="M 92.991345,22.194095 91.301721,0.43316441 94.68097,-8.3148182 98.060219,0.43316441 96.370595,22.194095 Z"
       id="path3164-0"
       sodipodi:nodetypes="cccccc" />
    <path
       style="fill:#008000;fill-opacity:1;stroke:#000000;stroke-width:0.1;stroke-linecap:butt;stroke-linejoin:miter;stroke-opacity:1;stroke-miterlimit:4;stroke-dasharray:none"
       d="m 74.430306,21.426899 -0.851569,-45.575936 1.703137,-8.747983 1.703139,8.747983 -0.851569,45.575936 z"
       id="path3579-0"
       sodipodi:nodetypes="cccccc" />
    <path
       style="fill:#c80000;fill-opacity:1;stroke:#000000;stroke-width:0.1;stroke-linecap:butt;stroke-linejoin:miter;stroke-miterlimit:4;stroke-dasharray:none;stroke-opacity:1"
       d="m 120.55408,39.964867 -1.15634,-45.5759364 2.00791,-8.7479826 2.06887,8.7479826 -1.2173,45.5759364 z"
       id="path3579-0-4-2"
       sodipodi:nodetypes="cccccc" />
    <path
       style="fill:#000080;fill-opacity:1;stroke:#000000;stroke-width:0.1;stroke-linecap:butt;stroke-linejoin:miter;stroke-miterlimit:4;stroke-dasharray:none;stroke-opacity:1"
       d="m 120.58457,39.964867 -0.85157,-45.575936 1.70314,-8.747983 1.70314,8.747983 -0.85157,45.575936 z"
       id="path3579-0-4"
       sodipodi:nodetypes="cccccc" />
    <path
       style="fill:#c80000;fill-opacity:1;stroke:none;stroke-width:0.905075px;stroke-linecap:butt;stroke-linejoin:miter;stroke-opacity:1"
       d="m 82.148014,21.426899 -1.689624,-4.563528 3.379249,-25.945385 3.379249,25.945385 -1.689624,4.563528 z"
       id="path1088-9-5-8-2-5"
       sodipodi:nodetypes="cccccc" />
    <circle
       style="fill:#c80000;fill-opacity:1;stroke:none;stroke-width:0.2;stroke-linecap:butt;stroke-linejoin:miter;stroke-opacity:1"
       id="path2747"
       cx="0"
       cy="0"
       r="4" />
    <path
       style="fill:#c80000;fill-opacity:1;stroke:#000000;stroke-width:0.1;stroke-linecap:butt;stroke-linejoin:miter;stroke-miterlimit:4;stroke-dasharray:none;stroke-opacity:1"
       d="m 93.8294,22.144095 -0.851569,-4.563529 1.703138,-49.76039 1.703139,49.76039 -0.851569,4.563529 z"
       id="path3322-0"
       sodipodi:nodetypes="cccccc" />
    <path
       style="fill:#00c800;fill-opacity:1;stroke:#000000;stroke-width:0.115451;stroke-linecap:butt;stroke-linejoin:miter;stroke-miterlimit:4;stroke-dasharray:none;stroke-opacity:1"
       d="m 104.98085,18.915309 -1.13516,-4.5631 2.27032,-49.755714 2.27031,49.755714 -1.13515,4.5631 z"
       id="path3322-0-4"
       sodipodi:nodetypes="cccccc" />
    <path
       style="fill:#c80000;fill-opacity:1;stroke:#000000;stroke-width:0.1;stroke-linecap:butt;stroke-linejoin:miter;stroke-miterlimit:4;stroke-dasharray:none;stroke-opacity:1"
       d="m 105.26444,18.923035 -0.85157,-4.563529 1.70314,-49.76039 1.70313,49.76039 -0.85156,4.563529 z"
       id="path3322-0-5"
       sodipodi:nodetypes="cccccc" />
    <path
       style="fill:#0000c8;fill-opacity:1;stroke:#000000;stroke-width:0.0869893;stroke-linecap:butt;stroke-linejoin:miter;stroke-miterlimit:4;stroke-dasharray:none;stroke-opacity:1"
       d="m 105.47162,18.92954 -0.6444,-4.563529 1.28879,-49.76039 1.28878,49.76039 -0.64438,4.563529 z"
       id="path3322-0-5-7"
       sodipodi:nodetypes="cccccc" />
    <path
       id="rect8766-9"
       style="fill:#00c800;fill-opacity:1;stroke:#000000;stroke-width:0.116499;stroke-miterlimit:4;stroke-dasharray:none;stroke-opacity:1"
       d="M -2.0967371,-25.936942 V 2.394281 h 4.1934742 v -28.331223 z m 0.8623556,14.959322 h 2.468763 v 7.8990937 h -2.468763 z"
       sodipodi:nodetypes="cccccccccc" />
    <path
       id="rect8766-1"
       style="fill:#c80000;fill-opacity:1;stroke:#000000;stroke-width:0.116499;stroke-miterlimit:4;stroke-dasharray:none;stroke-opacity:1"
       d="M -2.0967371,-25.936942 V 2.394281 h 4.1934742 v -28.331223 z m 0.8623556,7.060235 h 2.468763 v 15.7981807 h -2.468763 z"
       sodipodi:nodetypes="cccccccccc" />
    <path
       id="rect8766-2"
       style="fill:#00c800;fill-opacity:1;stroke:#000000;stroke-width:0.116499;stroke-miterlimit:4;stroke-dasharray:none;stroke-opacity:1"
       d="M -2.0967371,-52.910751 V 2.394281 h 4.1934742 v -55.305032 z m 0.8623556,22.648784 h 2.468763 v 27.1834407 h -2.468763 z"
       sodipodi:nodetypes="cccccccccc" />
    <path
       id="rect8766-4"
       style="fill:#c80000;fill-opacity:1;stroke:#000000;stroke-width:0.116499;stroke-miterlimit:4;stroke-dasharray:none;stroke-opacity:1"
       d="M -2.0967371,-52.910751 V 2.394281 h 4.1934742 v -55.305032 z m 0.8623556,14.751813 h 2.468763 v 35.0804117 h -2.468763 z"
       sodipodi:nodetypes="cccccccccc" />
    <path
       id="rect8766"
       style="fill:#0000c8;fill-opacity:1;stroke:#000000;stroke-width:0.116499;stroke-miterlimit:4;stroke-dasharray:none;stroke-opacity:1"
       d="M -2.0967371,-52.910751 V 2.394281 h 4.1934742 v -55.305032 z m 0.8623556,6.854844 h 2.468763 v 42.9773807 h -2.468763 z"
       sodipodi:nodetypes="cccccccccc" />
    <path
       id="rect8766-9-9"
       style="fill:#00c800;fill-opacity:1;stroke:#000000;stroke-width:0.120692;stroke-miterlimit:4;stroke-dasharray:none;stroke-opacity:1"
       d="m 179.1453,-8.966934 v 29.35101 h 4.34442 v -29.35101 z m 0.89339,15.497789 h 2.55763 v 8.183418 h -2.55763 z"
       sodipodi:nodetypes="cccccccccc" />
    <path
       id="rect8766-1-7"
       style="fill:#c80000;fill-opacity:1;stroke:#000000;stroke-width:0.120692;stroke-miterlimit:4;stroke-dasharray:none;stroke-opacity:1"
       d="m 179.1453,-8.966934 v 29.35101 h 4.34442 v -29.35101 z m 0.89339,7.314371 h 2.55763 v 16.366836 h -2.55763 z"
       sodipodi:nodetypes="cccccccccc" />
    <path
       id="rect8766-2-5"
       style="fill:#00c800;fill-opacity:1;stroke:#000000;stroke-width:0.120692;stroke-miterlimit:4;stroke-dasharray:none;stroke-opacity:1"
       d="m 179.1453,-36.911677 v 57.295753 h 4.34442 v -57.295753 z m 0.89339,23.464036 h 2.55763 v 28.161914 h -2.55763 z"
       sodipodi:nodetypes="cccccccccc" />
    <path
       id="rect8766-4-3"
       style="fill:#c80000;fill-opacity:1;stroke:#000000;stroke-width:0.120692;stroke-miterlimit:4;stroke-dasharray:none;stroke-opacity:1"
       d="m 179.1453,-36.911677 v 57.295753 h 4.34442 v -57.295753 z m 0.89339,15.282811 h 2.55763 v 36.343139 h -2.55763 z"
       sodipodi:nodetypes="cccccccccc" />
    <path
       id="rect8766-90"
       style="fill:#0000c8;fill-opacity:1;stroke:#000000;stroke-width:0.120692;stroke-miterlimit:4;stroke-dasharray:none;stroke-opacity:1"
       d="m 179.1453,-36.911677 v 57.295753 h 4.34442 v -57.295753 z m 0.89339,7.101587 h 2.55763 v 44.524363 h -2.55763 z"
       sodipodi:nodetypes="cccccccccc" />
    <path
       style="fill:none;stroke:#000000;stroke-width:0.2;stroke-linecap:butt;stroke-linejoin:miter;stroke-miterlimit:4;stroke-dasharray:none;stroke-opacity:1"
       d="m 164.1091,-46.563755 v 5.88407 6.778611 6.778611 l -0.0758,3.712522 0.0758,6.060373 v 6.780429 6.7804287 4.69775559"
       id="path14080"
       sodipodi:nodetypes="ccccccccc" />
  </g>
</svg>
